<svg xmlns="http://www.w3.org/2000/svg" viewBox="0 0 439.47 164.66"><ellipse cx="377.14" cy="158.46" rx="48.22" ry="6.19" fill="#00b2e3" opacity="0.1"/><ellipse cx="195.6" cy="155.14" rx="48.22" ry="6.19" fill="#00b2e3" opacity="0.1"/><path d="M869.3,475.56l9.26-16.11a2.86,2.86,0,0,1,2.8-1.42c7.8.88,37.33,6.34,43.46,38.59,0,0,26.38-23.77,39.32-23.27h62.71s23.56,0,57.56,39.75c0,0,83.95-16.2,88.43,53.15,0,0,6.14.5,7,4.48V583a4.16,4.16,0,0,1-4.15,4.48H869.3s-4.54.16-5-6.31v-7.8s.33-6.13,5.14-6.8c0,0,3.48-1.16.83-6.63,0,0-6.14-27.54,4.64-33.52l17.92-4.64s3.65-.33,2.16-4.65c0,0-2.49-12.11,5.14-17.25l6.14-5.64s3.48-1.33,1-5.47c0,0-11.94-16.1-20.23-15.93l-6.14,9.79s-1.33,3-8.3-2.16l-3.81-2.32S868.19,477.49,869.3,475.56Z" transform="translate(-740.34 -458.01)" fill="#ffc844"/><path d="M945.39,516s15-29.09,30.31-28.48h49.54s22.79,3,29.87,28.48Z" transform="translate(-740.34 -458.01)" fill="#fff"/><path d="M913.65,502.58l-6.94,6.64a1,1,0,0,0-.3.72v4.88a.45.45,0,0,0,.75.33l7.83-7.32a.78.78,0,0,0,.23-.75l-1-4.33A.34.34,0,0,0,913.65,502.58Z" transform="translate(-740.34 -458.01)" fill="#fff"/><circle cx="197.22" cy="125.09" r="32.74" fill="#33375d"/><circle cx="197.22" cy="125.09" r="19.13" fill="#fff"/><circle cx="197.22" cy="125.09" r="4.2" fill="#f6f6f9" opacity="0.62"/><circle cx="377.14" cy="125.09" r="32.74" fill="#33375d"/><circle cx="377.14" cy="125.09" r="19.13" fill="#fff"/><circle cx="377.14" cy="125.09" r="4.2" fill="#f6f6f9" opacity="0.62"/><polygon points="36 42.38 46.79 36.06 50.99 60.2 55.85 94.46 40.76 92.27 36 42.38" fill="#9ad1ed"/><polygon points="17.42 30.17 8.46 47.79 15.94 93.28 40.76 92.27 40.76 66.5 36 42.38 17.42 30.17" fill="#b7dbf6"/><polygon points="17.42 26.01 17.42 30.17 36 42.38 46.79 36.06 29.2 24.37 28.43 19.28 17.42 26.01" fill="#d6e6f4"/><path d="M771.71,488.11l2.65-2.72,7.93,6.51-3.13,2.58A17.39,17.39,0,0,1,771.71,488.11Z" transform="translate(-740.34 -458.01)" fill="#badaf3"/><ellipse cx="778.32" cy="488.65" rx="1.48" ry="5.13" transform="translate(-833.52 322.26) rotate(-50.62)" fill="#b1d0e5"/><path d="M792.32,491.67s-10.61,10.17-1,26.54l26.32-5.28s-8.07-13.56-16.81-7.13c0,0-3-8.31-5.75-11.22C795.09,494.58,793.65,491.55,792.32,491.67Z" transform="translate(-740.34 -458.01)" fill="#72b59d"/><path d="M792.65,496.2a35.07,35.07,0,0,0,0,12.86,25,25,0,0,0,4.09,9.92s-.42-11.16,7.11-9.94" transform="translate(-740.34 -458.01)" fill="none" stroke="#aedbcf" stroke-linecap="round" stroke-linejoin="round"/><path d="M813.89,494.58s-5.09,1.07-8.74,10.69c0,0-7.74,4.53-5,14.49l-2.44,24.88,16.15,6.86,14.82-29.75,2.61-13.63s-4-6.72-9.72-3C821.6,505.16,823.73,494.4,813.89,494.58Z" transform="translate(-740.34 -458.01)" fill="#74c9af"/><path d="M814,503.48s-3.86,5.54-4.12,18.27q0,1.86,0,3.93s3.32,16.2-7.74,23.39" transform="translate(-740.34 -458.01)" fill="none" stroke="#aedbcf" stroke-linecap="round" stroke-linejoin="round"/><path d="M824.11,513a14.79,14.79,0,0,0-14.23,8.78" transform="translate(-740.34 -458.01)" fill="none" stroke="#aedbcf" stroke-linecap="round" stroke-linejoin="round"/><path d="M822.52,522.75s-8.31-.64-12.17,7.09" transform="translate(-740.34 -458.01)" fill="none" stroke="#aedbcf" stroke-linecap="round" stroke-linejoin="round"/><path d="M822.05,531.25s-8.31-.64-12.17,7.09" transform="translate(-740.34 -458.01)" fill="none" stroke="#aedbcf" stroke-linecap="round" stroke-linejoin="round"/><path d="M802.94,515.39s3.76.51,7,10.29" transform="translate(-740.34 -458.01)" fill="none" stroke="#aedbcf" stroke-linecap="round" stroke-linejoin="round"/><path d="M802.94,525.54s3.76.51,7,10.29" transform="translate(-740.34 -458.01)" fill="none" stroke="#aedbcf" stroke-linecap="round" stroke-linejoin="round"/><path d="M767.05,509.7s8.19-5.75,14.6,1Z" transform="translate(-740.34 -458.01)" fill="#308b61"/><path d="M767,509.74s7.42,6.71,14.62.8Z" transform="translate(-740.34 -458.01)" fill="#56aa83"/><path d="M781.24,509h1.88s-.86,7.95,2,10.27l-3.33,2.44A70,70,0,0,1,781.24,509Z" transform="translate(-740.34 -458.01)" fill="#856651"/><path d="M858.16,479.46l-24.74,74.65a11.32,11.32,0,0,1-12.62,7.57,10.93,10.93,0,0,1-1.64-.41l-.8-.27a11.32,11.32,0,0,1-7.16-14.26l6.92-20.88.82-2.46,2.66-8,.81-2.44L824.7,506l.84-2.56,2.09-6.28.86-2.62,2.62-7.88L832,484l4-11.92a11.26,11.26,0,0,1,7.59-7.27,11.07,11.07,0,0,1,6.66.11l.8.26A11.31,11.31,0,0,1,858.16,479.46Z" transform="translate(-740.34 -458.01)" fill="#f9aa48"/><path d="M858.16,479.46l-24.74,74.65a11.32,11.32,0,0,1-12.62,7.57c30-65,25.18-90.24,22.74-96.85a11.07,11.07,0,0,1,6.66.11l.8.26A11.31,11.31,0,0,1,858.16,479.46Z" transform="translate(-740.34 -458.01)" fill="#e99842"/><path d="M838.54,488.83a18.75,18.75,0,0,0-7.43-2.13L832,484A8.5,8.5,0,0,1,838.54,488.83Z" transform="translate(-740.34 -458.01)" fill="#e99842"/><path d="M834.67,499.32a19.58,19.58,0,0,0-7-2.12l.86-2.62A8.39,8.39,0,0,1,834.67,499.32Z" transform="translate(-740.34 -458.01)" fill="#e99842"/><path d="M831.32,508.12A19.77,19.77,0,0,0,824.7,506l.84-2.56A8.24,8.24,0,0,1,831.32,508.12Z" transform="translate(-740.34 -458.01)" fill="#e99842"/><path d="M827.46,517.35a20.25,20.25,0,0,0-5.86-2l.81-2.44A8,8,0,0,1,827.46,517.35Z" transform="translate(-740.34 -458.01)" fill="#e99842"/><path d="M824.11,527.86a20.38,20.38,0,0,0-6-2l.82-2.46A8.07,8.07,0,0,1,824.11,527.86Z" transform="translate(-740.34 -458.01)" fill="#e99842"/><path d="M783.92,518.94s8-8.63,17.47-2.88c0,0,12,7.19-.77,29.53h-26.1s-11.28-11.72-4.65-22.23A11.93,11.93,0,0,1,783.92,518.94Z" transform="translate(-740.34 -458.01)" fill="#f27074"/><circle cx="36.72" cy="68.45" r="0.77" fill="#f6958f"/><circle cx="33.62" cy="70.45" r="0.77" fill="#f6958f"/><circle cx="36.72" cy="71.83" r="0.85" fill="#f6958f"/><ellipse cx="56.85" cy="155.14" rx="55.3" ry="6.41" fill="#00b2e3" opacity="0.1"/><rect y="81.44" width="112.75" height="7.3" rx="3.65" fill="#575b80"/><path d="M749.63,546.74h97.55L837.77,605a5.65,5.65,0,0,1-5.59,4.76h-69a5.66,5.66,0,0,1-5.61-4.9Z" transform="translate(-740.34 -458.01)" fill="#575b80"/><polygon points="104.99 100.19 9.79 92.35 9.29 88.73 106.84 88.73 104.99 100.19" fill="#2e3059"/><path d="M796.19,503.48a6.37,6.37,0,0,0-3.56,5.58" transform="translate(-740.34 -458.01)" fill="none" stroke="#aedbcf" stroke-linecap="round" stroke-linejoin="round"/></svg>