<svg xmlns="http://www.w3.org/2000/svg" viewBox="0 0 576.81 287.11"><path d="M354.35,365.55l26-24.32c8,10.21,19.5,11.88,25.44,11.88,8.54,0,14.85-3.15,16.15-9.09,1.3-6.32-6.31-8.17-16.34-10.22-27.47-6.31-33.23-20.23-30.07-37.31,4.45-23,31.56-38.06,55.69-38.06,18.75,0,33.24,6.31,44.19,15l-25.25,24.32a28.92,28.92,0,0,0-20.61-8.54c-6.5,0-12.81,3.15-14.11,8.35-1.11,4.27,1.49,6.69,16,10,21.16,5.38,35.83,16.71,31.37,39-4.82,25.25-32.67,37.32-56.62,37.32C387,383.93,368.46,380,354.35,365.55Zm136.08-73h35.46l-17.26,88.18H473.17Zm4.27-25.06c1.86-10,11.7-17.83,21.91-17.83s16.89,7.8,15,17.83C529.79,277.18,520,285,509.74,285S492.66,277.18,494.7,267.53Zm124,26.73-14.3,27.48a17.56,17.56,0,0,0-8.17-1.86c-12.62,0-22.28,10.77-25.06,25.06l.56-3.71-7.62,39.54H528.3l17.08-88.18h31.56l2,9.47c5.57-5.39,13.36-11.7,23.76-11.7A35.31,35.31,0,0,1,618.72,294.26Zm94.12,25.62c-.37,13-10.59,26.92-46.6,26.92H649C649,355.53,652.5,360,661,360c7.43,0,12.44-3,16.89-7.42l21.35,20.23c-10.76,7.43-22.09,11.14-38.24,11.14-34.72,0-53.1-19.86-47.53-48.45,5.57-27.3,30.82-45.12,60.9-45.12C696.69,290.36,713.39,301.31,712.84,319.88ZM680.53,321c0-4.27-5-5.94-9.28-5.94-7.43,0-14.48,3.72-18.56,13.56h13.55C675.71,328.61,680.53,324.71,680.53,321Zm137.38,3.72L807,380.77H771.31l8.54-45.48c2-10.77.38-15-6.68-15-5.57,0-11.88,4.27-15.22,15.23l-8.73,45.29H713.58l17.08-88.18H762l2,7.61c8.73-6.5,17.64-9.84,27.85-9.84C806.77,290.36,822.93,299.27,817.91,324.71Zm113.25-31.94-17.27,88H884.56l-1.11-5.56a45.36,45.36,0,0,1-26.92,8.72c-22.47,0-36-16.52-29.89-45.67,6.68-30.45,28.21-47.9,51.61-47.9,9.47,0,16.15,2.79,20.79,7.24l3-4.83Zm-55.51,61.46c7.42,0,15.22-6.13,17.26-16,2.42-11.14-3.34-18-11.88-18-7.8,0-15.22,5.94-17.45,16C861.35,347.17,866.92,354.23,875.65,354.23Z" transform="translate(-354.35 -249.7)" fill="#fff"/><path d="M500.06,483.81l-133.69-6.24L499.57,472Zm-1.68-40.39-109,4.53,109.48,7.25Zm-.16,58.74-109,4.53,109.48,7.25Z" transform="translate(-354.35 -249.7)" fill="#003ebc"/><path d="M736.68,495.08c-3.28,17.23-18.95,26.92-34.34,29.2l-2.42,12.54H684.54l2.28-12.4c-11-1-20.66-4.41-29.35-12.82L678,491.51c6.13,7.84,12.11,9.55,18.24,9.55,3.56,0,8.55-1.43,9.4-5.84.71-3.14.14-5.7-10.83-8.69-18.66-5-22.36-15.39-19.8-28.35,2.85-14.67,16.1-25.07,30.35-28.78l2.42-12.54h15.38L721,428.26a46.2,46.2,0,0,1,26.63,11l-19.8,19.23c-5.13-4.7-8.83-7-14.53-7-3.42,0-7.41,2.14-8.12,6s1.28,5.69,10.54,8.54C728.27,469.72,740,478.12,736.68,495.08Z" transform="translate(-354.35 -249.7)" fill="#f9ea25"/><path d="M469.14,478c5-27.24,30-45.77,56.89-45.77,15.57,0,24.09,3.52,32.8,9.82l-24.09,26.32c-2.22-4.08-7-5.56-10.56-5.56-9.27,0-16.87,6.11-19.09,17.23-2,9.64,2.78,15,11.12,15,4.45,0,10-2.41,14.08-6.3l14.46,27.61c-10.57,6.12-20.57,9.27-34.84,9.27C481.93,525.58,463.77,506.31,469.14,478ZM660,434.59l-17.24,87.84H613.49l-1.11-5.56a45.23,45.23,0,0,1-26.88,8.71c-22.42,0-35.94-16.5-29.83-45.59,6.67-30.39,28.17-47.81,51.52-47.81,9.45,0,16.12,2.78,20.75,7.23l3-4.82Zm-55.41,61.34c7.41,0,15.2-6.12,17.24-15.94,2.41-11.12-3.34-18-11.86-18-7.79,0-15.2,5.93-17.42,15.93C590.32,488.89,595.88,495.93,604.59,495.93Zm242.8-29.47-11.12,56H800.69L809.4,477c2-10.75.37-15-6.86-15-6.11,0-13.34,5.37-16.12,19.64l.56-5-8.9,45.77H742.5l24.46-126h35.58L793.65,442c8.71-6.48,17.6-9.82,27.61-9.82C836.27,432.18,852.2,441.08,847.39,466.46Z" transform="translate(-354.35 -249.7)" fill="#003ebc"/></svg>