<svg xmlns="http://www.w3.org/2000/svg" viewBox="0 0 79.21 114.81"><defs><style>.a{fill:#ffffff;fill-rule:evenodd;}</style></defs><path class="a" d="M978.51,538.67A17.47,17.47,0,0,0,965.27,533a17.84,17.84,0,0,0,18,19.28A17.48,17.48,0,0,0,978.51,538.67Zm-37,0A17.47,17.47,0,0,1,954.78,533a17.84,17.84,0,0,1-18,19.28A17.47,17.47,0,0,1,941.54,538.67Zm24.44-43a17.47,17.47,0,0,0-5.82-13.18,17.84,17.84,0,0,0,0,26.36A17.47,17.47,0,0,0,966,495.69Zm12.34,15.79a20.38,20.38,0,0,0,3.55-16.42,20.81,20.81,0,0,0-18.07,24.87A20.38,20.38,0,0,0,978.33,511.48Zm6.19,19.81a23.83,23.83,0,0,0,15.09-12.58,24.33,24.33,0,0,0-34.56,9.91A23.83,23.83,0,0,0,984.52,531.29Zm5.21-19.11a11.27,11.27,0,0,0,6.12-7,11.5,11.5,0,0,0-15.4,7.18A11.26,11.26,0,0,0,989.73,512.18Zm-20.52-20.81a7.93,7.93,0,0,0-.71,6.5,8.09,8.09,0,0,0,6-10.35A7.92,7.92,0,0,0,969.21,491.37Zm16.87,51a12.89,12.89,0,0,1-7.27-7.75,13.16,13.16,0,0,1,17.9,7.6A12.9,12.9,0,0,1,986.08,542.36Zm-44.39-30.88a20.38,20.38,0,0,1-3.55-16.42,20.81,20.81,0,0,1,18.07,24.87A20.38,20.38,0,0,1,941.69,511.48Zm-6.19,19.81a23.83,23.83,0,0,1-15.09-12.58A24.33,24.33,0,0,1,955,528.62,23.83,23.83,0,0,1,935.5,531.29Zm-5.21-19.11a11.27,11.27,0,0,1-6.12-7,11.5,11.5,0,0,1,15.4,7.18A11.26,11.26,0,0,1,930.29,512.18Zm20.52-20.81a7.93,7.93,0,0,1,.7,6.5,8.09,8.09,0,0,1-6-10.35A7.93,7.93,0,0,1,950.81,491.37Zm-17,51a12.89,12.89,0,0,0,7.27-7.75,13.16,13.16,0,0,0-17.9,7.6A12.9,12.9,0,0,0,933.86,542.36ZM960,513.13l3.39,45.08h-6.77Z" transform="translate(-920.41 -482.51)"/><path class="a" d="M965.8,588.17h3.51a3.48,3.48,0,0,1,2.35.86,2.78,2.78,0,0,1,.88,2,3,3,0,0,1-.78,2.13,3.35,3.35,0,0,1-2.34,1c-.52,0-1,0-1.55,0,0,1,0,2,0,3H965.8Q965.8,592.68,965.8,588.17Zm2.07,1.73c.45,0,.9,0,1.35,0a1.28,1.28,0,0,1,1,.48,1.39,1.39,0,0,1,.13,1.31,1.19,1.19,0,0,1-1,.71c-.48,0-1,0-1.45,0Q967.89,591.17,967.88,589.91Zm-19.65-1.73h3.57a3.48,3.48,0,0,1,2.34.87,2.67,2.67,0,0,1,.83,2,2.86,2.86,0,0,1-.67,1.91,3,3,0,0,1-.72.59c.49,1.22,1,2.44,1.47,3.66h-2.28c-.4-1.07-.82-2.13-1.23-3.19h-1.24v3.2h-2.08Q948.23,592.68,948.23,588.17Zm2.07,1.73c.42,0,.84,0,1.26,0a1.43,1.43,0,0,1,1,.38,1.19,1.19,0,0,1,.17,1.33,1.24,1.24,0,0,1-1.08.62c-.44,0-.88,0-1.33,0C950.3,591.46,950.31,590.69,950.3,589.91ZM977,588a4.18,4.18,0,0,1,2.45.5,2.75,2.75,0,0,1,1.28,1.75,4.2,4.2,0,0,1,.09,1c0,1,0,2,0,2.93a3.27,3.27,0,0,1-.24,1.25,2.79,2.79,0,0,1-1.39,1.43,4.46,4.46,0,0,1-2.61.3,2.92,2.92,0,0,1-2.59-3c0-1.07,0-2.13,0-3.2a2.92,2.92,0,0,1,.83-2.12A3.44,3.44,0,0,1,977,588Zm0,1.83a1.54,1.54,0,0,1,1.39.26,1.32,1.32,0,0,1,.39,1c0,1,0,1.91,0,2.86a1.64,1.64,0,0,1-.28,1.09,1.4,1.4,0,0,1-1.3.43,1.18,1.18,0,0,1-.91-.56,1.61,1.61,0,0,1-.19-.85v-2.6a2.24,2.24,0,0,1,.14-1A1.14,1.14,0,0,1,977,589.88Zm-20.11-1.71H959c0,2,0,4,0,6a1.38,1.38,0,0,0,.37,1,1.24,1.24,0,0,0,2.09-1c0-2,0-4,0-6h2.08v5.5a5.72,5.72,0,0,1-.1,1.4,2.74,2.74,0,0,1-1.17,1.7,3.92,3.92,0,0,1-2.56.52,3.23,3.23,0,0,1-2-.94,3,3,0,0,1-.77-2.09Q956.87,591.21,956.88,588.17Zm-16.26.3a4.46,4.46,0,0,1,2.5-.41,3,3,0,0,1,2.22,1.19,3.11,3.11,0,0,1,.5,1.93h-2a1.43,1.43,0,0,0-.24-1,1.3,1.3,0,0,0-1.1-.41,1.27,1.27,0,0,0-1,.43,1.46,1.46,0,0,0-.28,1c0,1,0,2,0,3a1.33,1.33,0,0,0,.43,1.05,1.52,1.52,0,0,0,1.28.23,1.13,1.13,0,0,0,.79-.57,1.87,1.87,0,0,0,.17-.85h-1.23c0-.51,0-1,0-1.54h3.16c0,.56,0,1.11,0,1.67a3.46,3.46,0,0,1-.21,1.25,2.74,2.74,0,0,1-1.49,1.55,4.29,4.29,0,0,1-2.61.2,3,3,0,0,1-2-1.37,3.14,3.14,0,0,1-.4-1.62c0-.94,0-1.88,0-2.82a4,4,0,0,1,.19-1.46A2.62,2.62,0,0,1,940.62,588.47Z" transform="translate(-920.41 -482.51)"/><path class="a" d="M941,565.49h4.5c1.81,6.32,3.63,12.19,5.45,18.51h-4.29c-.27-1-.52-1.56-.78-2.56-1.82,0-3.64,0-5.46,0-.11.12-.11.29-.16.44-.21.85-.42,1.26-.64,2.11h-4.1C937.33,577.68,939.14,571.8,941,565.49Zm.24,12.41c.63-2.46,1.26-4.91,1.86-7.38.61,2.46,1.25,4.91,1.88,7.37C943.71,577.9,942.47,577.88,941.22,577.91ZM977,565.23a7.71,7.71,0,0,1,5.48,1.49,6.08,6.08,0,0,1,2.14,4.61c0,1.79,0,3.13,0,4.91a11.61,11.61,0,0,1-.36,3.89,5.73,5.73,0,0,1-3,3.4,8.63,8.63,0,0,1-5.25.59,6.19,6.19,0,0,1-4.24-2.82,6.81,6.81,0,0,1-.89-3.57c0-2.24,0-4,0-6.29a6.33,6.33,0,0,1,1.58-4.34A6.71,6.71,0,0,1,977,565.23Zm.12,3.79a3.11,3.11,0,0,1,2.08.28,2.35,2.35,0,0,1,1.07,1.32,5.47,5.47,0,0,1,.17,1.73c0,2,0,3.49,0,5.46a2.7,2.7,0,0,1-1,2.25,3.1,3.1,0,0,1-3,.15,2.6,2.6,0,0,1-1.3-2.38c0-2.05,0-3.66,0-5.71a3.84,3.84,0,0,1,.33-1.87A2.33,2.33,0,0,1,977.09,569Zm-56.6-3.53c2.38,0,4.75,0,7.13,0a6.82,6.82,0,0,1,4.67,1.74A5.68,5.68,0,0,1,934,571.1a6.34,6.34,0,0,1-1.23,4.27,5.69,5.69,0,0,1-1.55,1.37c1,2.57,2,4.69,3,7.26h-4.59c-.82-2.24-1.65-4-2.48-6.28h-2.48c0,2.24,0,4,0,6.28h-4.18C920.49,577.68,920.5,571.8,920.49,565.49Zm4.18,3.66h2.38a2.92,2.92,0,0,1,2,.71,2.54,2.54,0,0,1,.46,2.82,2.42,2.42,0,0,1-2.06,1.34c-.94.07-1.88,0-2.82,0C924.68,572.43,924.67,570.79,924.68,569.15Zm27.88-3.66h3.58l4.33,7.58q2.14-3.78,4.27-7.58h3.58c0,6.32,0,12.19,0,18.51h-4.06c0-3.56,0-6.67,0-10.22-.88,1.49-1.75,3-2.62,4.49h-2.43c-.9-1.53-1.79-3.06-2.72-4.57,0,3.58,0,6.72,0,10.3h-3.9C952.56,577.68,952.56,571.8,952.55,565.49Zm37,.54a7.65,7.65,0,0,1,5.19-.61,5.53,5.53,0,0,1,3.74,2.59,6.13,6.13,0,0,1,.7,3.21h-4a2.93,2.93,0,0,0-.31-1.68,2.51,2.51,0,0,0-3.52-.4,1.67,1.67,0,0,0-.07,2.31,5.74,5.74,0,0,0,2.27,1.08,13.62,13.62,0,0,1,4.39,2.06,4.69,4.69,0,0,1,1.65,3.51,5.62,5.62,0,0,1-1.51,4.32,6.65,6.65,0,0,1-4.77,1.85,7.74,7.74,0,0,1-4.8-1.37,5,5,0,0,1-2-3.35,11.51,11.51,0,0,1-.07-1.51c1.34,0,2.69,0,4,0a3.24,3.24,0,0,0,.33,2,2.43,2.43,0,0,0,1.91.88,3.15,3.15,0,0,0,2.29-.62,1.93,1.93,0,0,0,.39-2.18,2.16,2.16,0,0,0-1.26-1.09c-1.14-.43-2.29-.81-3.42-1.25a6.4,6.4,0,0,1-3.13-2.33,5.4,5.4,0,0,1-.69-3.6A5.22,5.22,0,0,1,989.52,566Z" transform="translate(-920.41 -482.51)"/></svg>