<svg xmlns="http://www.w3.org/2000/svg" viewBox="0 0 285.14 133.26"><defs><style>.a{fill:#fff;}</style></defs><title>logo_go</title><polygon class="a" points="99.22 28.84 17.3 32.25 99.59 37.69 99.22 28.84"/><polygon class="a" points="99.1 72.99 17.18 76.39 99.47 81.84 99.1 72.99"/><polygon class="a" points="0 54.51 100.48 59.2 100.11 50.35 0 54.51"/><path class="a" d="M86.28,57.88C86.75,26.57,112.72-.56,150.2,0c19.65.3,33.85,8.51,40.46,17.32L172.14,34.74A33.5,33.5,0,0,0,148,24.27c-19.79-.3-33.64,14.8-33.92,32.91-.21,13.76,9.65,21.07,21.72,21.25A30.67,30.67,0,0,0,148.92,76L153,62.82l-19-.29,5.49-19.85,45.06.68L169.86,92.7A73.55,73.55,0,0,1,132.94,102c-23.44-.35-47.11-13.91-46.65-44.09" transform="translate(0 0)"/><path class="a" d="M179.51,58.44a58.35,58.35,0,0,1,59.41-57c27.94.42,46.6,19.8,46.22,44.79a58.35,58.35,0,0,1-59.41,57c-27.94-.42-46.6-19.8-46.22-44.79M257.31,48c.19-12.49-7.25-21.87-21.15-22.08-17.13-.26-28.61,16.28-28.83,30.88-.19,12.49,7.25,21.87,21.15,22.08,17.27.26,28.61-16.28,28.83-30.88" transform="translate(0 0)"/><path class="a" d="M98.55,121.84h3.55a4.64,4.64,0,0,1,3.52,1.14,3.09,3.09,0,0,1,.86,2.31c0,2.78-2.38,4.37-5.44,4.37H98.92L98,133H95.54Zm2.63,5.65c1.63,0,2.74-.74,2.74-2a1.28,1.28,0,0,0-.37-.93,2,2,0,0,0-1.54-.5h-1.6l-.91,3.42Z" transform="translate(0 0)"/><polygon class="a" points="109.52 121.84 111.99 121.84 108.98 133.04 106.51 133.04 109.52 121.84"/><path class="a" d="M112.66,128.35a6.84,6.84,0,0,1,6.82-6.71A4.89,4.89,0,0,1,124,124l-2,1.43a3.1,3.1,0,0,0-2.75-1.54,4.26,4.26,0,0,0-4,4.34A2.6,2.6,0,0,0,118,131a3.89,3.89,0,0,0,2.63-1.1l1.6,1.66a5.93,5.93,0,0,1-4.24,1.71c-3.06,0-5.28-1.89-5.28-4.88" transform="translate(0 0)"/><polygon class="a" points="126.4 121.84 128.87 121.84 127.54 126.8 133.08 121.84 136.41 121.84 130.95 126.53 133.59 133.04 130.88 133.04 129 128 126.68 129.98 125.86 133.04 123.39 133.04 126.4 121.84"/><path class="a" d="M135.73,129.44a6.73,6.73,0,0,1,.27-1.79l1.55-5.81H140l-1.62,6a4.13,4.13,0,0,0-.18,1.22,1.76,1.76,0,0,0,2,1.86,2.52,2.52,0,0,0,1.82-.7,4.5,4.5,0,0,0,1.09-2.08l1.7-6.32h2.46l-1.79,6.67a7.2,7.2,0,0,1-1.73,3.33,5.1,5.1,0,0,1-3.81,1.38c-2.59,0-4.19-1.39-4.19-3.78" transform="translate(0 0)"/><path class="a" d="M149.86,121.84h3.55a4.63,4.63,0,0,1,3.52,1.14,3.09,3.09,0,0,1,.86,2.31c0,2.78-2.39,4.37-5.44,4.37h-2.13l-.91,3.39h-2.46Zm2.63,5.65c1.63,0,2.74-.74,2.74-2a1.28,1.28,0,0,0-.37-.93,2,2,0,0,0-1.54-.5h-1.6l-.91,3.42Z" transform="translate(0 0)"/><path class="a" d="M169.67,132a5.94,5.94,0,0,1-3.43,1.17c-2.08,0-3.55-1.12-3.55-3,0-1.36.9-2.74,3.17-3.49a4,4,0,0,1-.59-1.94,3.28,3.28,0,0,1,3.57-3.12,2.79,2.79,0,0,1,3.09,2.69c0,1.09-.67,2.31-3,3.11l1.26,1.7a12,12,0,0,0,1.36-1.81l1.49,1a17.15,17.15,0,0,1-1.74,2.26l1.1,1.49-1.81,1.15Zm-1.1-1.54-1.73-2.38c-1.28.5-1.82,1.23-1.82,1.94s.51,1.14,1.51,1.14a4,4,0,0,0,2-.69m1.17-6a.94.94,0,0,0-1-.91,1.24,1.24,0,0,0-1.3,1.23,2.24,2.24,0,0,0,.46,1.26c1.46-.53,1.84-.94,1.84-1.59" transform="translate(0 0)"/><path class="a" d="M181.46,121.84h3.26a5.91,5.91,0,0,1,4.39,1.44,4.41,4.41,0,0,1,1.22,3.28,6.15,6.15,0,0,1-1.84,4.42,7.94,7.94,0,0,1-5.87,2.06h-4.16Zm1.44,9a5.26,5.26,0,0,0,3.75-1.36,3.92,3.92,0,0,0,1.12-2.8,2.42,2.42,0,0,0-.66-1.78,3.5,3.5,0,0,0-2.58-.82h-1.2l-1.83,6.75Z" transform="translate(0 0)"/><polygon class="a" points="193.89 121.84 202.26 121.84 201.67 124.03 195.75 124.03 195.14 126.32 200.34 126.32 199.75 128.48 194.55 128.48 193.91 130.85 199.93 130.85 199.33 133.04 190.88 133.04 193.89 121.84"/><polygon class="a" points="204.53 121.84 207 121.84 204.6 130.8 210.18 130.8 209.57 133.04 201.52 133.04 204.53 121.84"/><polygon class="a" points="214.66 121.84 217.13 121.84 214.12 133.04 211.65 133.04 214.66 121.84"/><polygon class="a" points="218.72 121.84 221.36 121.84 222.13 129.65 227.09 121.84 229.86 121.84 222.36 133.12 220.18 133.12 218.72 121.84"/><polygon class="a" points="231.51 121.84 239.88 121.84 239.29 124.03 233.36 124.03 232.76 126.32 237.96 126.32 237.37 128.48 232.16 128.48 231.53 130.85 237.54 130.85 236.95 133.04 228.5 133.04 231.51 121.84"/><path class="a" d="M242.15,121.84h4.08a4.78,4.78,0,0,1,3.55,1.12,3.12,3.12,0,0,1,.87,2.26c0,2-1.23,3.44-3.62,4l1.9,3.83h-2.8l-1.73-3.58h-1.84l-1,3.58h-2.47Zm3.2,5.44c1.54,0,2.72-.62,2.72-1.86a1.17,1.17,0,0,0-.35-.9,2.29,2.29,0,0,0-1.63-.46H244l-.87,3.22Z" transform="translate(0 0)"/><polygon class="a" points="254.07 128.62 251.75 121.84 254.49 121.84 255.8 126.48 259.64 121.84 262.62 121.84 256.49 128.85 255.35 133.04 252.88 133.04 254.07 128.62"/></svg>