<svg id="Layer_1" data-name="Layer 1" xmlns="http://www.w3.org/2000/svg" viewBox="0 0 552.77 315.99"><title>logo_sirena</title><path d="M1210.05,471.55c-17.49,0-31.89,7.25-35,26.4h21.71c1.82-6.41,3-11.9,10.89-11.9,4.35,0,6,3.73,5.13,8-1.69,8.23-11.39,9.15-21.43,12.31-10.26,3.17-20.87,8.66-24.52,26.05-2.6,12.18,3.3,20.41,15.59,20.41,8.58,0,13.92-3.24,20.66-9.22l.07,6.76h21.22a22.49,22.49,0,0,1,0-8.38l10-47C1238,478.1,1231.56,471.55,1210.05,471.55Zm-3.86,53.64c-1.19,4.93-3.93,11.68-10.4,11.68-5.2,0-7.3-3.45-6.32-8.23a14.32,14.32,0,0,1,7.17-9.86c3.16-2,7.23-3.3,12.08-5.63Z" transform="translate(-682.53 -382.05)" style="fill:#e1251b;fill-rule:evenodd"/><path d="M1079.18,471.55c-16.86.14-30.64,6.55-34.85,26.26l-6.6,31.25c-3.73,17.46,8.57,23.86,24.16,23.72,18.9-.28,31.48-9.22,34.57-28.93h-21.57c-1.75,6.41-2.46,13.66-10.47,13.31-4.7-.29-5.9-3.88-5-8.1l2.88-13.44h36.74l4.64-21.89C1107.21,477.18,1094.36,471.41,1079.18,471.55Zm2.81,22.18-1.62,7.53h-15l1.05-5.07c1.2-5.35,3.72-10.28,9.84-10.28C1081.85,485.91,1082.55,491,1082,493.73Z" transform="translate(-682.53 -382.05)" style="fill:#e1251b;fill-rule:evenodd"/><path d="M1006.42,474.05l-16.3,76.59h21.71l10-47.17c1.75-6.26,4.5-7.53,10.61-7.53a32.35,32.35,0,0,1,6.46.57l5.2-24.64c-9,0-15.53,5.63-19.74,13.8h-.28l2.53-11.62Z" transform="translate(-682.53 -382.05)" style="fill:#e1251b;fill-rule:evenodd"/><path d="M1116.26,473.73,1100,550.32h21.78l11.59-54.69c.84-3.95,3.37-6.13,7.24-6.27,4.14-.28,4.85,2.75,4.35,6.27l-11.59,54.69H1155l13.35-62.72c2.18-10.42-5.76-16.05-16-16.05-6.81,0-14.33,5.91-17.63,11.76h-.29l2-9.58Z" transform="translate(-682.53 -382.05)" style="fill:#e1251b;fill-rule:evenodd"/><path d="M982.32,550.64l16.3-76.59H976.84l-16.23,76.59Zm17.85-84.12,3.93-18.44H982.39l-3.93,18.44Z" transform="translate(-682.53 -382.05)" style="fill:#e1251b;fill-rule:evenodd"/><path d="M909.89,382.05s-49.81-.7-75.11,32.17-11.66,69.33,29.37,83.41c28.81,9.93,50.66,34.21,32.81,52-21.92,21.75-46.3,7.18-53.25,5.49-7.31-1.83-28.74-15.91-57.41-17-70.33-2.75-91.4,41.17-103.77,46.38,0,0,51.92-26.6,116.77-2C784.9,638.55,808.15,698,808.15,698s15.74-99.18,66.26-123.81c28.66-7.54,88-7.54,84.59-62.23,0,0-3.72-38.29-49.11-50.61-30-8.09-73.21-32.24-53.26-58.14C873,382.05,909.89,382.05,909.89,382.05Z" transform="translate(-682.53 -382.05)" style="fill:#0047ba"/></svg>